<?xml version="1.0" encoding="UTF-8" standalone="no"?>
<!DOCTYPE svg PUBLIC "-//W3C//DTD SVG 1.1//EN"
 "http://www.w3.org/Graphics/SVG/1.1/DTD/svg11.dtd">
<!-- Generated by graphviz version 2.49.3 (20211023.0002)
 -->
<!-- Pages: 1 -->
<svg width="1807pt" height="548pt"
 viewBox="0.00 0.00 1806.50 548.00" xmlns="http://www.w3.org/2000/svg" xmlns:xlink="http://www.w3.org/1999/xlink">
<g id="graph0" class="graph" transform="scale(1 1) rotate(0) translate(4 544)">
<polygon fill="white" stroke="transparent" points="-4,4 -4,-544 1802.5,-544 1802.5,4 -4,4"/>
<!-- [root] aws_elb.web (expand) -->
<g id="node1" class="node">
<title>[root] aws_elb.web (expand)</title>
<polygon fill="none" stroke="black" points="1067,-396 978,-396 978,-360 1067,-360 1067,-396"/>
<text text-anchor="middle" x="1022.5" y="-374.3" font-family="Times New Roman,serif" font-size="14.00">aws_elb.web</text>
</g>
<!-- [root] aws_instance.production_server (expand) -->
<g id="node2" class="node">
<title>[root] aws_instance.production_server (expand)</title>
<polygon fill="none" stroke="black" points="1121,-324 924,-324 924,-288 1121,-288 1121,-324"/>
<text text-anchor="middle" x="1022.5" y="-302.3" font-family="Times New Roman,serif" font-size="14.00">aws_instance.production_server</text>
</g>
<!-- [root] aws_elb.web (expand)&#45;&gt;[root] aws_instance.production_server (expand) -->
<g id="edge1" class="edge">
<title>[root] aws_elb.web (expand)&#45;&gt;[root] aws_instance.production_server (expand)</title>
<path fill="none" stroke="black" d="M1022.5,-359.7C1022.5,-351.98 1022.5,-342.71 1022.5,-334.11"/>
<polygon fill="black" stroke="black" points="1026,-334.1 1022.5,-324.1 1019,-334.1 1026,-334.1"/>
</g>
<!-- [root] aws_security_group.elb_sg (expand) -->
<g id="node8" class="node">
<title>[root] aws_security_group.elb_sg (expand)</title>
<polygon fill="none" stroke="black" points="881.5,-324 711.5,-324 711.5,-288 881.5,-288 881.5,-324"/>
<text text-anchor="middle" x="796.5" y="-302.3" font-family="Times New Roman,serif" font-size="14.00">aws_security_group.elb_sg</text>
</g>
<!-- [root] aws_elb.web (expand)&#45;&gt;[root] aws_security_group.elb_sg (expand) -->
<g id="edge2" class="edge">
<title>[root] aws_elb.web (expand)&#45;&gt;[root] aws_security_group.elb_sg (expand)</title>
<path fill="none" stroke="black" d="M977.85,-363.17C944.55,-352.86 898.56,-338.61 861.23,-327.05"/>
<polygon fill="black" stroke="black" points="862.04,-323.63 851.45,-324.02 859.96,-330.32 862.04,-323.63"/>
</g>
<!-- [root] aws_security_group.production_vpc_sg (expand) -->
<g id="node9" class="node">
<title>[root] aws_security_group.production_vpc_sg (expand)</title>
<polygon fill="none" stroke="black" points="843.5,-252 599.5,-252 599.5,-216 843.5,-216 843.5,-252"/>
<text text-anchor="middle" x="721.5" y="-230.3" font-family="Times New Roman,serif" font-size="14.00">aws_security_group.production_vpc_sg</text>
</g>
<!-- [root] aws_instance.production_server (expand)&#45;&gt;[root] aws_security_group.production_vpc_sg (expand) -->
<g id="edge3" class="edge">
<title>[root] aws_instance.production_server (expand)&#45;&gt;[root] aws_security_group.production_vpc_sg (expand)</title>
<path fill="none" stroke="black" d="M949.25,-287.97C905.56,-277.8 849.95,-264.87 804.62,-254.33"/>
<polygon fill="black" stroke="black" points="805.35,-250.91 794.82,-252.05 803.76,-257.72 805.35,-250.91"/>
</g>
<!-- [root] aws_subnet.public (expand) -->
<g id="node11" class="node">
<title>[root] aws_subnet.public (expand)</title>
<polygon fill="none" stroke="black" points="1381,-252 1260,-252 1260,-216 1381,-216 1381,-252"/>
<text text-anchor="middle" x="1320.5" y="-230.3" font-family="Times New Roman,serif" font-size="14.00">aws_subnet.public</text>
</g>
<!-- [root] aws_instance.production_server (expand)&#45;&gt;[root] aws_subnet.public (expand) -->
<g id="edge4" class="edge">
<title>[root] aws_instance.production_server (expand)&#45;&gt;[root] aws_subnet.public (expand)</title>
<path fill="none" stroke="black" d="M1096.47,-288C1138.67,-278.26 1192.8,-265.68 1249.87,-252.14"/>
<polygon fill="black" stroke="black" points="1250.88,-255.5 1259.8,-249.78 1249.26,-248.69 1250.88,-255.5"/>
</g>
<!-- [root] var.aws_amis -->
<g id="node18" class="node">
<title>[root] var.aws_amis</title>
<polygon fill="none" stroke="black" points="947.5,-252 861.5,-252 861.5,-216 953.5,-216 953.5,-246 947.5,-252"/>
<polyline fill="none" stroke="black" points="947.5,-252 947.5,-246 "/>
<polyline fill="none" stroke="black" points="953.5,-246 947.5,-246 "/>
<text text-anchor="middle" x="907.5" y="-230.3" font-family="Times New Roman,serif" font-size="14.00">var.aws_amis</text>
</g>
<!-- [root] aws_instance.production_server (expand)&#45;&gt;[root] var.aws_amis -->
<g id="edge5" class="edge">
<title>[root] aws_instance.production_server (expand)&#45;&gt;[root] var.aws_amis</title>
<path fill="none" stroke="black" d="M994.37,-287.88C979.33,-278.72 960.63,-267.34 944.44,-257.48"/>
<polygon fill="black" stroke="black" points="946.1,-254.4 935.74,-252.19 942.46,-260.38 946.1,-254.4"/>
</g>
<!-- [root] var.aws_availability_zone -->
<g id="node19" class="node">
<title>[root] var.aws_availability_zone</title>
<polygon fill="none" stroke="black" points="1123.5,-252 971.5,-252 971.5,-216 1129.5,-216 1129.5,-246 1123.5,-252"/>
<polyline fill="none" stroke="black" points="1123.5,-252 1123.5,-246 "/>
<polyline fill="none" stroke="black" points="1129.5,-246 1123.5,-246 "/>
<text text-anchor="middle" x="1050.5" y="-230.3" font-family="Times New Roman,serif" font-size="14.00">var.aws_availability_zone</text>
</g>
<!-- [root] aws_instance.production_server (expand)&#45;&gt;[root] var.aws_availability_zone -->
<g id="edge6" class="edge">
<title>[root] aws_instance.production_server (expand)&#45;&gt;[root] var.aws_availability_zone</title>
<path fill="none" stroke="black" d="M1029.42,-287.7C1032.57,-279.81 1036.38,-270.3 1039.88,-261.55"/>
<polygon fill="black" stroke="black" points="1043.19,-262.69 1043.66,-252.1 1036.69,-260.09 1043.19,-262.69"/>
</g>
<!-- [root] var.key_name -->
<g id="node25" class="node">
<title>[root] var.key_name</title>
<polygon fill="none" stroke="black" points="1235.5,-252 1147.5,-252 1147.5,-216 1241.5,-216 1241.5,-246 1235.5,-252"/>
<polyline fill="none" stroke="black" points="1235.5,-252 1235.5,-246 "/>
<polyline fill="none" stroke="black" points="1241.5,-246 1235.5,-246 "/>
<text text-anchor="middle" x="1194.5" y="-230.3" font-family="Times New Roman,serif" font-size="14.00">var.key_name</text>
</g>
<!-- [root] aws_instance.production_server (expand)&#45;&gt;[root] var.key_name -->
<g id="edge7" class="edge">
<title>[root] aws_instance.production_server (expand)&#45;&gt;[root] var.key_name</title>
<path fill="none" stroke="black" d="M1064.58,-287.88C1088.3,-278.22 1118.12,-266.09 1143.2,-255.88"/>
<polygon fill="black" stroke="black" points="1144.62,-259.08 1152.56,-252.07 1141.98,-252.6 1144.62,-259.08"/>
</g>
<!-- [root] aws_internet_gateway.public (expand) -->
<g id="node3" class="node">
<title>[root] aws_internet_gateway.public (expand)</title>
<polygon fill="none" stroke="black" points="646,-324 469,-324 469,-288 646,-288 646,-324"/>
<text text-anchor="middle" x="557.5" y="-302.3" font-family="Times New Roman,serif" font-size="14.00">aws_internet_gateway.public</text>
</g>
<!-- [root] aws_vpc.production_vpc (expand) -->
<g id="node12" class="node">
<title>[root] aws_vpc.production_vpc (expand)</title>
<polygon fill="none" stroke="black" points="845,-180 684,-180 684,-144 845,-144 845,-180"/>
<text text-anchor="middle" x="764.5" y="-158.3" font-family="Times New Roman,serif" font-size="14.00">aws_vpc.production_vpc</text>
</g>
<!-- [root] aws_internet_gateway.public (expand)&#45;&gt;[root] aws_vpc.production_vpc (expand) -->
<g id="edge8" class="edge">
<title>[root] aws_internet_gateway.public (expand)&#45;&gt;[root] aws_vpc.production_vpc (expand)</title>
<path fill="none" stroke="black" d="M556.49,-287.89C556.28,-268 559.1,-235.44 577.5,-216 602.41,-189.68 639.33,-176.11 673.8,-169.23"/>
<polygon fill="black" stroke="black" points="674.72,-172.63 683.92,-167.39 673.46,-165.74 674.72,-172.63"/>
</g>
<!-- [root] aws_route.production_rt (expand) -->
<g id="node4" class="node">
<title>[root] aws_route.production_rt (expand)</title>
<polygon fill="none" stroke="black" points="833,-396 678,-396 678,-360 833,-360 833,-396"/>
<text text-anchor="middle" x="755.5" y="-374.3" font-family="Times New Roman,serif" font-size="14.00">aws_route.production_rt</text>
</g>
<!-- [root] aws_route.production_rt (expand)&#45;&gt;[root] aws_internet_gateway.public (expand) -->
<g id="edge9" class="edge">
<title>[root] aws_route.production_rt (expand)&#45;&gt;[root] aws_internet_gateway.public (expand)</title>
<path fill="none" stroke="black" d="M707.32,-359.97C679.65,-350.19 644.72,-337.84 615.55,-327.52"/>
<polygon fill="black" stroke="black" points="616.49,-324.14 605.9,-324.11 614.16,-330.74 616.49,-324.14"/>
</g>
<!-- [root] aws_s3_bucket.sid_bucket_artifacts (expand) -->
<g id="node5" class="node">
<title>[root] aws_s3_bucket.sid_bucket_artifacts (expand)</title>
<polygon fill="none" stroke="black" points="1731,-324 1510,-324 1510,-288 1731,-288 1731,-324"/>
<text text-anchor="middle" x="1620.5" y="-302.3" font-family="Times New Roman,serif" font-size="14.00">aws_s3_bucket.sid_bucket_artifacts</text>
</g>
<!-- [root] provider[&quot;registry.terraform.io/hashicorp/aws&quot;] -->
<g id="node14" class="node">
<title>[root] provider[&quot;registry.terraform.io/hashicorp/aws&quot;]</title>
<polygon fill="none" stroke="black" points="1126.5,-108 869.27,-90 1126.5,-72 1383.73,-90 1126.5,-108"/>
<text text-anchor="middle" x="1126.5" y="-86.3" font-family="Times New Roman,serif" font-size="14.00">provider[&quot;registry.terraform.io/hashicorp/aws&quot;]</text>
</g>
<!-- [root] aws_s3_bucket.sid_bucket_artifacts (expand)&#45;&gt;[root] provider[&quot;registry.terraform.io/hashicorp/aws&quot;] -->
<g id="edge10" class="edge">
<title>[root] aws_s3_bucket.sid_bucket_artifacts (expand)&#45;&gt;[root] provider[&quot;registry.terraform.io/hashicorp/aws&quot;]</title>
<path fill="none" stroke="black" d="M1622.81,-287.82C1626.22,-254.57 1628.32,-181.39 1587.5,-144 1564.33,-122.78 1398.16,-107.74 1271.91,-99.22"/>
<polygon fill="black" stroke="black" points="1271.95,-95.72 1261.74,-98.55 1271.49,-102.7 1271.95,-95.72"/>
</g>
<!-- [root] var.artifacts_bucket_name -->
<g id="node15" class="node">
<title>[root] var.artifacts_bucket_name</title>
<polygon fill="none" stroke="black" points="1792.5,-252 1634.5,-252 1634.5,-216 1798.5,-216 1798.5,-246 1792.5,-252"/>
<polyline fill="none" stroke="black" points="1792.5,-252 1792.5,-246 "/>
<polyline fill="none" stroke="black" points="1798.5,-246 1792.5,-246 "/>
<text text-anchor="middle" x="1716.5" y="-230.3" font-family="Times New Roman,serif" font-size="14.00">var.artifacts_bucket_name</text>
</g>
<!-- [root] aws_s3_bucket.sid_bucket_artifacts (expand)&#45;&gt;[root] var.artifacts_bucket_name -->
<g id="edge11" class="edge">
<title>[root] aws_s3_bucket.sid_bucket_artifacts (expand)&#45;&gt;[root] var.artifacts_bucket_name</title>
<path fill="none" stroke="black" d="M1644.23,-287.7C1656.44,-278.8 1671.49,-267.82 1684.68,-258.2"/>
<polygon fill="black" stroke="black" points="1687.02,-260.82 1693.04,-252.1 1682.9,-255.17 1687.02,-260.82"/>
</g>
<!-- [root] aws_s3_bucket_acl.artifact_bucket_acl (expand) -->
<g id="node6" class="node">
<title>[root] aws_s3_bucket_acl.artifact_bucket_acl (expand)</title>
<polygon fill="none" stroke="black" points="1753,-396 1516,-396 1516,-360 1753,-360 1753,-396"/>
<text text-anchor="middle" x="1634.5" y="-374.3" font-family="Times New Roman,serif" font-size="14.00">aws_s3_bucket_acl.artifact_bucket_acl</text>
</g>
<!-- [root] aws_s3_bucket_acl.artifact_bucket_acl (expand)&#45;&gt;[root] aws_s3_bucket.sid_bucket_artifacts (expand) -->
<g id="edge12" class="edge">
<title>[root] aws_s3_bucket_acl.artifact_bucket_acl (expand)&#45;&gt;[root] aws_s3_bucket.sid_bucket_artifacts (expand)</title>
<path fill="none" stroke="black" d="M1631.04,-359.7C1629.5,-351.98 1627.64,-342.71 1625.92,-334.11"/>
<polygon fill="black" stroke="black" points="1629.31,-333.22 1623.92,-324.1 1622.45,-334.6 1629.31,-333.22"/>
</g>
<!-- [root] aws_s3_bucket_versioning.artifact_bucket_versioning (expand) -->
<g id="node7" class="node">
<title>[root] aws_s3_bucket_versioning.artifact_bucket_versioning (expand)</title>
<polygon fill="none" stroke="black" points="1497.5,-396 1177.5,-396 1177.5,-360 1497.5,-360 1497.5,-396"/>
<text text-anchor="middle" x="1337.5" y="-374.3" font-family="Times New Roman,serif" font-size="14.00">aws_s3_bucket_versioning.artifact_bucket_versioning</text>
</g>
<!-- [root] aws_s3_bucket_versioning.artifact_bucket_versioning (expand)&#45;&gt;[root] aws_s3_bucket.sid_bucket_artifacts (expand) -->
<g id="edge13" class="edge">
<title>[root] aws_s3_bucket_versioning.artifact_bucket_versioning (expand)&#45;&gt;[root] aws_s3_bucket.sid_bucket_artifacts (expand)</title>
<path fill="none" stroke="black" d="M1406.37,-359.97C1447.2,-349.87 1499.1,-337.03 1541.58,-326.52"/>
<polygon fill="black" stroke="black" points="1542.46,-329.91 1551.32,-324.11 1540.78,-323.11 1542.46,-329.91"/>
</g>
<!-- [root] aws_security_group.elb_sg (expand)&#45;&gt;[root] aws_vpc.production_vpc (expand) -->
<g id="edge14" class="edge">
<title>[root] aws_security_group.elb_sg (expand)&#45;&gt;[root] aws_vpc.production_vpc (expand)</title>
<path fill="none" stroke="black" d="M711.34,-293.73C661.6,-285.21 605.69,-271.59 590.5,-252 560.97,-213.91 617.77,-190.69 674.19,-177.57"/>
<polygon fill="black" stroke="black" points="674.97,-180.98 683.97,-175.39 673.44,-174.15 674.97,-180.98"/>
</g>
<!-- [root] aws_security_group.production_vpc_sg (expand)&#45;&gt;[root] aws_vpc.production_vpc (expand) -->
<g id="edge15" class="edge">
<title>[root] aws_security_group.production_vpc_sg (expand)&#45;&gt;[root] aws_vpc.production_vpc (expand)</title>
<path fill="none" stroke="black" d="M732.13,-215.7C737.13,-207.56 743.19,-197.69 748.71,-188.7"/>
<polygon fill="black" stroke="black" points="751.74,-190.46 753.99,-180.1 745.78,-186.79 751.74,-190.46"/>
</g>
<!-- [root] aws_subnet.private (expand) -->
<g id="node10" class="node">
<title>[root] aws_subnet.private (expand)</title>
<polygon fill="none" stroke="black" points="1523.5,-252 1399.5,-252 1399.5,-216 1523.5,-216 1523.5,-252"/>
<text text-anchor="middle" x="1461.5" y="-230.3" font-family="Times New Roman,serif" font-size="14.00">aws_subnet.private</text>
</g>
<!-- [root] aws_subnet.private (expand)&#45;&gt;[root] aws_vpc.production_vpc (expand) -->
<g id="edge16" class="edge">
<title>[root] aws_subnet.private (expand)&#45;&gt;[root] aws_vpc.production_vpc (expand)</title>
<path fill="none" stroke="black" d="M1399.27,-217.54C1396.31,-216.98 1393.38,-216.46 1390.5,-216 1339.13,-207.72 1016.56,-182.34 855.61,-169.95"/>
<polygon fill="black" stroke="black" points="855.49,-166.43 845.25,-169.15 854.95,-173.41 855.49,-166.43"/>
</g>
<!-- [root] data.aws_availability_zones.available (expand) -->
<g id="node13" class="node">
<title>[root] data.aws_availability_zones.available (expand)</title>
<polygon fill="none" stroke="black" points="1237,-180 1016,-180 1016,-144 1237,-144 1237,-180"/>
<text text-anchor="middle" x="1126.5" y="-158.3" font-family="Times New Roman,serif" font-size="14.00">data.aws_availability_zones.available</text>
</g>
<!-- [root] aws_subnet.private (expand)&#45;&gt;[root] data.aws_availability_zones.available (expand) -->
<g id="edge17" class="edge">
<title>[root] aws_subnet.private (expand)&#45;&gt;[root] data.aws_availability_zones.available (expand)</title>
<path fill="none" stroke="black" d="M1399.19,-217.94C1396.26,-217.28 1393.35,-216.63 1390.5,-216 1336.15,-204.04 1275.25,-191.74 1225.66,-182.01"/>
<polygon fill="black" stroke="black" points="1226.06,-178.52 1215.58,-180.03 1224.72,-185.39 1226.06,-178.52"/>
</g>
<!-- [root] var.availability_zones_count -->
<g id="node16" class="node">
<title>[root] var.availability_zones_count</title>
<polygon fill="none" stroke="black" points="1572.5,-180 1404.5,-180 1404.5,-144 1578.5,-144 1578.5,-174 1572.5,-180"/>
<polyline fill="none" stroke="black" points="1572.5,-180 1572.5,-174 "/>
<polyline fill="none" stroke="black" points="1578.5,-174 1572.5,-174 "/>
<text text-anchor="middle" x="1491.5" y="-158.3" font-family="Times New Roman,serif" font-size="14.00">var.availability_zones_count</text>
</g>
<!-- [root] aws_subnet.private (expand)&#45;&gt;[root] var.availability_zones_count -->
<g id="edge18" class="edge">
<title>[root] aws_subnet.private (expand)&#45;&gt;[root] var.availability_zones_count</title>
<path fill="none" stroke="black" d="M1468.92,-215.7C1472.29,-207.81 1476.37,-198.3 1480.12,-189.55"/>
<polygon fill="black" stroke="black" points="1483.45,-190.67 1484.17,-180.1 1477.01,-187.92 1483.45,-190.67"/>
</g>
<!-- [root] var.subnet_cidr_bits -->
<g id="node28" class="node">
<title>[root] var.subnet_cidr_bits</title>
<polygon fill="none" stroke="black" points="1380,-180 1255,-180 1255,-144 1386,-144 1386,-174 1380,-180"/>
<polyline fill="none" stroke="black" points="1380,-180 1380,-174 "/>
<polyline fill="none" stroke="black" points="1386,-174 1380,-174 "/>
<text text-anchor="middle" x="1320.5" y="-158.3" font-family="Times New Roman,serif" font-size="14.00">var.subnet_cidr_bits</text>
</g>
<!-- [root] aws_subnet.private (expand)&#45;&gt;[root] var.subnet_cidr_bits -->
<g id="edge19" class="edge">
<title>[root] aws_subnet.private (expand)&#45;&gt;[root] var.subnet_cidr_bits</title>
<path fill="none" stroke="black" d="M1427.01,-215.88C1408.06,-206.47 1384.37,-194.71 1364.14,-184.67"/>
<polygon fill="black" stroke="black" points="1365.64,-181.5 1355.13,-180.19 1362.53,-187.77 1365.64,-181.5"/>
</g>
<!-- [root] aws_subnet.public (expand)&#45;&gt;[root] aws_vpc.production_vpc (expand) -->
<g id="edge20" class="edge">
<title>[root] aws_subnet.public (expand)&#45;&gt;[root] aws_vpc.production_vpc (expand)</title>
<path fill="none" stroke="black" d="M1259.89,-217.77C1256.73,-217.14 1253.58,-216.54 1250.5,-216 1113.84,-192.06 953.55,-177.08 855.53,-169.38"/>
<polygon fill="black" stroke="black" points="855.6,-165.88 845.36,-168.59 855.06,-172.86 855.6,-165.88"/>
</g>
<!-- [root] aws_subnet.public (expand)&#45;&gt;[root] data.aws_availability_zones.available (expand) -->
<g id="edge21" class="edge">
<title>[root] aws_subnet.public (expand)&#45;&gt;[root] data.aws_availability_zones.available (expand)</title>
<path fill="none" stroke="black" d="M1273.04,-215.88C1245.93,-206.09 1211.76,-193.77 1183.24,-183.47"/>
<polygon fill="black" stroke="black" points="1184.4,-180.17 1173.8,-180.07 1182.02,-186.75 1184.4,-180.17"/>
</g>
<!-- [root] aws_subnet.public (expand)&#45;&gt;[root] var.availability_zones_count -->
<g id="edge22" class="edge">
<title>[root] aws_subnet.public (expand)&#45;&gt;[root] var.availability_zones_count</title>
<path fill="none" stroke="black" d="M1362.33,-215.88C1385.92,-206.22 1415.56,-194.09 1440.5,-183.88"/>
<polygon fill="black" stroke="black" points="1441.88,-187.1 1449.8,-180.07 1439.22,-180.62 1441.88,-187.1"/>
</g>
<!-- [root] aws_subnet.public (expand)&#45;&gt;[root] var.subnet_cidr_bits -->
<g id="edge23" class="edge">
<title>[root] aws_subnet.public (expand)&#45;&gt;[root] var.subnet_cidr_bits</title>
<path fill="none" stroke="black" d="M1320.5,-215.7C1320.5,-207.98 1320.5,-198.71 1320.5,-190.11"/>
<polygon fill="black" stroke="black" points="1324,-190.1 1320.5,-180.1 1317,-190.1 1324,-190.1"/>
</g>
<!-- [root] aws_vpc.production_vpc (expand)&#45;&gt;[root] provider[&quot;registry.terraform.io/hashicorp/aws&quot;] -->
<g id="edge24" class="edge">
<title>[root] aws_vpc.production_vpc (expand)&#45;&gt;[root] provider[&quot;registry.terraform.io/hashicorp/aws&quot;]</title>
<path fill="none" stroke="black" d="M845.29,-145.38C907.17,-133.41 991.87,-117.03 1052.1,-105.39"/>
<polygon fill="black" stroke="black" points="1052.77,-108.82 1061.93,-103.49 1051.44,-101.95 1052.77,-108.82"/>
</g>
<!-- [root] var.vpc_cidr -->
<g id="node31" class="node">
<title>[root] var.vpc_cidr</title>
<polygon fill="none" stroke="black" points="802.5,-108 720.5,-108 720.5,-72 808.5,-72 808.5,-102 802.5,-108"/>
<polyline fill="none" stroke="black" points="802.5,-108 802.5,-102 "/>
<polyline fill="none" stroke="black" points="808.5,-102 802.5,-102 "/>
<text text-anchor="middle" x="764.5" y="-86.3" font-family="Times New Roman,serif" font-size="14.00">var.vpc_cidr</text>
</g>
<!-- [root] aws_vpc.production_vpc (expand)&#45;&gt;[root] var.vpc_cidr -->
<g id="edge25" class="edge">
<title>[root] aws_vpc.production_vpc (expand)&#45;&gt;[root] var.vpc_cidr</title>
<path fill="none" stroke="black" d="M764.5,-143.7C764.5,-135.98 764.5,-126.71 764.5,-118.11"/>
<polygon fill="black" stroke="black" points="768,-118.1 764.5,-108.1 761,-118.1 768,-118.1"/>
</g>
<!-- [root] data.aws_availability_zones.available (expand)&#45;&gt;[root] provider[&quot;registry.terraform.io/hashicorp/aws&quot;] -->
<g id="edge26" class="edge">
<title>[root] data.aws_availability_zones.available (expand)&#45;&gt;[root] provider[&quot;registry.terraform.io/hashicorp/aws&quot;]</title>
<path fill="none" stroke="black" d="M1126.5,-143.7C1126.5,-135.98 1126.5,-126.71 1126.5,-118.11"/>
<polygon fill="black" stroke="black" points="1130,-118.1 1126.5,-108.1 1123,-118.1 1130,-118.1"/>
</g>
<!-- [root] var.aws_access_key -->
<g id="node17" class="node">
<title>[root] var.aws_access_key</title>
<polygon fill="none" stroke="black" points="1052,-36 927,-36 927,0 1058,0 1058,-30 1052,-36"/>
<polyline fill="none" stroke="black" points="1052,-36 1052,-30 "/>
<polyline fill="none" stroke="black" points="1058,-30 1052,-30 "/>
<text text-anchor="middle" x="992.5" y="-14.3" font-family="Times New Roman,serif" font-size="14.00">var.aws_access_key</text>
</g>
<!-- [root] provider[&quot;registry.terraform.io/hashicorp/aws&quot;]&#45;&gt;[root] var.aws_access_key -->
<g id="edge32" class="edge">
<title>[root] provider[&quot;registry.terraform.io/hashicorp/aws&quot;]&#45;&gt;[root] var.aws_access_key</title>
<path fill="none" stroke="black" d="M1097.75,-73.98C1079.26,-64.32 1054.93,-51.61 1034.32,-40.85"/>
<polygon fill="black" stroke="black" points="1035.93,-37.74 1025.44,-36.21 1032.69,-43.94 1035.93,-37.74"/>
</g>
<!-- [root] var.aws_region -->
<g id="node20" class="node">
<title>[root] var.aws_region</title>
<polygon fill="none" stroke="black" points="1171,-36 1076,-36 1076,0 1177,0 1177,-30 1171,-36"/>
<polyline fill="none" stroke="black" points="1171,-36 1171,-30 "/>
<polyline fill="none" stroke="black" points="1177,-30 1171,-30 "/>
<text text-anchor="middle" x="1126.5" y="-14.3" font-family="Times New Roman,serif" font-size="14.00">var.aws_region</text>
</g>
<!-- [root] provider[&quot;registry.terraform.io/hashicorp/aws&quot;]&#45;&gt;[root] var.aws_region -->
<g id="edge33" class="edge">
<title>[root] provider[&quot;registry.terraform.io/hashicorp/aws&quot;]&#45;&gt;[root] var.aws_region</title>
<path fill="none" stroke="black" d="M1126.5,-71.7C1126.5,-63.98 1126.5,-54.71 1126.5,-46.11"/>
<polygon fill="black" stroke="black" points="1130,-46.1 1126.5,-36.1 1123,-46.1 1130,-46.1"/>
</g>
<!-- [root] var.aws_secret_key -->
<g id="node21" class="node">
<title>[root] var.aws_secret_key</title>
<polygon fill="none" stroke="black" points="1316,-36 1195,-36 1195,0 1322,0 1322,-30 1316,-36"/>
<polyline fill="none" stroke="black" points="1316,-36 1316,-30 "/>
<polyline fill="none" stroke="black" points="1322,-30 1316,-30 "/>
<text text-anchor="middle" x="1258.5" y="-14.3" font-family="Times New Roman,serif" font-size="14.00">var.aws_secret_key</text>
</g>
<!-- [root] provider[&quot;registry.terraform.io/hashicorp/aws&quot;]&#45;&gt;[root] var.aws_secret_key -->
<g id="edge34" class="edge">
<title>[root] provider[&quot;registry.terraform.io/hashicorp/aws&quot;]&#45;&gt;[root] var.aws_secret_key</title>
<path fill="none" stroke="black" d="M1155.14,-73.81C1173.29,-64.19 1197.06,-51.58 1217.22,-40.89"/>
<polygon fill="black" stroke="black" points="1219.01,-43.9 1226.2,-36.13 1215.73,-37.72 1219.01,-43.9"/>
</g>
<!-- [root] var.env -->
<g id="node22" class="node">
<title>[root] var.env</title>
<polygon fill="none" stroke="black" points="51,-468 0,-468 0,-432 57,-432 57,-462 51,-468"/>
<polyline fill="none" stroke="black" points="51,-468 51,-462 "/>
<polyline fill="none" stroke="black" points="57,-462 51,-462 "/>
<text text-anchor="middle" x="28.5" y="-446.3" font-family="Times New Roman,serif" font-size="14.00">var.env</text>
</g>
<!-- [root] var.infra_project_repository_branch -->
<g id="node23" class="node">
<title>[root] var.infra_project_repository_branch</title>
<polygon fill="none" stroke="black" points="288,-468 75,-468 75,-432 294,-432 294,-462 288,-468"/>
<polyline fill="none" stroke="black" points="288,-468 288,-462 "/>
<polyline fill="none" stroke="black" points="294,-462 288,-462 "/>
<text text-anchor="middle" x="184.5" y="-446.3" font-family="Times New Roman,serif" font-size="14.00">var.infra_project_repository_branch</text>
</g>
<!-- [root] var.infra_project_repository_name -->
<g id="node24" class="node">
<title>[root] var.infra_project_repository_name</title>
<polygon fill="none" stroke="black" points="516.5,-468 312.5,-468 312.5,-432 522.5,-432 522.5,-462 516.5,-468"/>
<polyline fill="none" stroke="black" points="516.5,-468 516.5,-462 "/>
<polyline fill="none" stroke="black" points="522.5,-462 516.5,-462 "/>
<text text-anchor="middle" x="417.5" y="-446.3" font-family="Times New Roman,serif" font-size="14.00">var.infra_project_repository_name</text>
</g>
<!-- [root] var.project -->
<g id="node26" class="node">
<title>[root] var.project</title>
<polygon fill="none" stroke="black" points="612,-468 541,-468 541,-432 618,-432 618,-462 612,-468"/>
<polyline fill="none" stroke="black" points="612,-468 612,-462 "/>
<polyline fill="none" stroke="black" points="618,-462 612,-462 "/>
<text text-anchor="middle" x="579.5" y="-446.3" font-family="Times New Roman,serif" font-size="14.00">var.project</text>
</g>
<!-- [root] var.region -->
<g id="node27" class="node">
<title>[root] var.region</title>
<polygon fill="none" stroke="black" points="702.5,-468 636.5,-468 636.5,-432 708.5,-432 708.5,-462 702.5,-468"/>
<polyline fill="none" stroke="black" points="702.5,-468 702.5,-462 "/>
<polyline fill="none" stroke="black" points="708.5,-462 702.5,-462 "/>
<text text-anchor="middle" x="672.5" y="-446.3" font-family="Times New Roman,serif" font-size="14.00">var.region</text>
</g>
<!-- [root] var.tags -->
<g id="node29" class="node">
<title>[root] var.tags</title>
<polygon fill="none" stroke="black" points="780.5,-468 726.5,-468 726.5,-432 786.5,-432 786.5,-462 780.5,-468"/>
<polyline fill="none" stroke="black" points="780.5,-468 780.5,-462 "/>
<polyline fill="none" stroke="black" points="786.5,-462 780.5,-462 "/>
<text text-anchor="middle" x="756.5" y="-446.3" font-family="Times New Roman,serif" font-size="14.00">var.tags</text>
</g>
<!-- [root] var.tf_version -->
<g id="node30" class="node">
<title>[root] var.tf_version</title>
<polygon fill="none" stroke="black" points="892.5,-468 804.5,-468 804.5,-432 898.5,-432 898.5,-462 892.5,-468"/>
<polyline fill="none" stroke="black" points="892.5,-468 892.5,-462 "/>
<polyline fill="none" stroke="black" points="898.5,-462 892.5,-462 "/>
<text text-anchor="middle" x="851.5" y="-446.3" font-family="Times New Roman,serif" font-size="14.00">var.tf_version</text>
</g>
<!-- [root] provider[&quot;registry.terraform.io/hashicorp/aws&quot;] (close) -->
<g id="node32" class="node">
<title>[root] provider[&quot;registry.terraform.io/hashicorp/aws&quot;] (close)</title>
<ellipse fill="none" stroke="black" cx="1149.5" cy="-450" rx="232.86" ry="18"/>
<text text-anchor="middle" x="1149.5" y="-446.3" font-family="Times New Roman,serif" font-size="14.00">[root] provider[&quot;registry.terraform.io/hashicorp/aws&quot;] (close)</text>
</g>
<!-- [root] provider[&quot;registry.terraform.io/hashicorp/aws&quot;] (close)&#45;&gt;[root] aws_elb.web (expand) -->
<g id="edge27" class="edge">
<title>[root] provider[&quot;registry.terraform.io/hashicorp/aws&quot;] (close)&#45;&gt;[root] aws_elb.web (expand)</title>
<path fill="none" stroke="black" d="M1118.76,-432.05C1101.88,-422.75 1080.75,-411.11 1062.59,-401.1"/>
<polygon fill="black" stroke="black" points="1063.85,-397.79 1053.4,-396.03 1060.47,-403.92 1063.85,-397.79"/>
</g>
<!-- [root] provider[&quot;registry.terraform.io/hashicorp/aws&quot;] (close)&#45;&gt;[root] aws_route.production_rt (expand) -->
<g id="edge28" class="edge">
<title>[root] provider[&quot;registry.terraform.io/hashicorp/aws&quot;] (close)&#45;&gt;[root] aws_route.production_rt (expand)</title>
<path fill="none" stroke="black" d="M1061.08,-433.29C996.15,-421.75 908.33,-406.15 843.5,-394.63"/>
<polygon fill="black" stroke="black" points="843.75,-391.13 833.3,-392.82 842.53,-398.02 843.75,-391.13"/>
</g>
<!-- [root] provider[&quot;registry.terraform.io/hashicorp/aws&quot;] (close)&#45;&gt;[root] aws_s3_bucket_acl.artifact_bucket_acl (expand) -->
<g id="edge29" class="edge">
<title>[root] provider[&quot;registry.terraform.io/hashicorp/aws&quot;] (close)&#45;&gt;[root] aws_s3_bucket_acl.artifact_bucket_acl (expand)</title>
<path fill="none" stroke="black" d="M1254.14,-433.9C1328.11,-423.22 1427.71,-408.85 1506.44,-397.48"/>
<polygon fill="black" stroke="black" points="1507.02,-400.94 1516.42,-396.04 1506.02,-394.01 1507.02,-400.94"/>
</g>
<!-- [root] provider[&quot;registry.terraform.io/hashicorp/aws&quot;] (close)&#45;&gt;[root] aws_s3_bucket_versioning.artifact_bucket_versioning (expand) -->
<g id="edge30" class="edge">
<title>[root] provider[&quot;registry.terraform.io/hashicorp/aws&quot;] (close)&#45;&gt;[root] aws_s3_bucket_versioning.artifact_bucket_versioning (expand)</title>
<path fill="none" stroke="black" d="M1194.53,-432.23C1220.77,-422.46 1254.07,-410.07 1281.92,-399.69"/>
<polygon fill="black" stroke="black" points="1283.38,-402.89 1291.53,-396.12 1280.94,-396.33 1283.38,-402.89"/>
</g>
<!-- [root] provider[&quot;registry.terraform.io/hashicorp/aws&quot;] (close)&#45;&gt;[root] aws_subnet.private (expand) -->
<g id="edge31" class="edge">
<title>[root] provider[&quot;registry.terraform.io/hashicorp/aws&quot;] (close)&#45;&gt;[root] aws_subnet.private (expand)</title>
<path fill="none" stroke="black" d="M1148.71,-431.94C1148.72,-412.42 1151.63,-380.49 1168.5,-360 1198.55,-323.51 1319.11,-280.02 1395.9,-255.15"/>
<polygon fill="black" stroke="black" points="1397.06,-258.45 1405.51,-252.06 1394.92,-251.79 1397.06,-258.45"/>
</g>
<!-- [root] root -->
<g id="node33" class="node">
<title>[root] root</title>
<ellipse fill="none" stroke="black" cx="625.5" cy="-522" rx="49.29" ry="18"/>
<text text-anchor="middle" x="625.5" y="-518.3" font-family="Times New Roman,serif" font-size="14.00">[root] root</text>
</g>
<!-- [root] root&#45;&gt;[root] var.env -->
<g id="edge36" class="edge">
<title>[root] root&#45;&gt;[root] var.env</title>
<path fill="none" stroke="black" d="M575.83,-521.83C478.58,-522.27 256.69,-517.46 67.1,-467.94"/>
<polygon fill="black" stroke="black" points="67.8,-464.51 57.24,-465.32 66,-471.27 67.8,-464.51"/>
</g>
<!-- [root] root&#45;&gt;[root] var.infra_project_repository_branch -->
<g id="edge37" class="edge">
<title>[root] root&#45;&gt;[root] var.infra_project_repository_branch</title>
<path fill="none" stroke="black" d="M581.2,-513.97C516.39,-503.68 393.49,-484.17 301.58,-469.58"/>
<polygon fill="black" stroke="black" points="302.08,-466.12 291.66,-468.01 300.99,-473.03 302.08,-466.12"/>
</g>
<!-- [root] root&#45;&gt;[root] var.infra_project_repository_name -->
<g id="edge38" class="edge">
<title>[root] root&#45;&gt;[root] var.infra_project_repository_name</title>
<path fill="none" stroke="black" d="M590.22,-509.13C559.47,-498.78 514.21,-483.55 477.74,-471.27"/>
<polygon fill="black" stroke="black" points="478.78,-467.93 468.19,-468.06 476.55,-474.57 478.78,-467.93"/>
</g>
<!-- [root] root&#45;&gt;[root] var.project -->
<g id="edge39" class="edge">
<title>[root] root&#45;&gt;[root] var.project</title>
<path fill="none" stroke="black" d="M614.6,-504.41C609.2,-496.2 602.57,-486.1 596.52,-476.9"/>
<polygon fill="black" stroke="black" points="599.38,-474.88 590.97,-468.45 593.53,-478.73 599.38,-474.88"/>
</g>
<!-- [root] root&#45;&gt;[root] var.region -->
<g id="edge40" class="edge">
<title>[root] root&#45;&gt;[root] var.region</title>
<path fill="none" stroke="black" d="M636.64,-504.41C642.15,-496.2 648.93,-486.1 655.11,-476.9"/>
<polygon fill="black" stroke="black" points="658.12,-478.7 660.79,-468.45 652.31,-474.8 658.12,-478.7"/>
</g>
<!-- [root] root&#45;&gt;[root] var.tags -->
<g id="edge41" class="edge">
<title>[root] root&#45;&gt;[root] var.tags</title>
<path fill="none" stroke="black" d="M652.33,-506.67C670.97,-496.7 696.14,-483.25 717.06,-472.07"/>
<polygon fill="black" stroke="black" points="718.87,-475.08 726.04,-467.28 715.57,-468.9 718.87,-475.08"/>
</g>
<!-- [root] root&#45;&gt;[root] var.tf_version -->
<g id="edge42" class="edge">
<title>[root] root&#45;&gt;[root] var.tf_version</title>
<path fill="none" stroke="black" d="M661.81,-509.75C697.62,-498.66 752.88,-481.54 794.54,-468.64"/>
<polygon fill="black" stroke="black" points="795.77,-471.93 804.28,-465.63 793.69,-465.24 795.77,-471.93"/>
</g>
<!-- [root] root&#45;&gt;[root] provider[&quot;registry.terraform.io/hashicorp/aws&quot;] (close) -->
<g id="edge35" class="edge">
<title>[root] root&#45;&gt;[root] provider[&quot;registry.terraform.io/hashicorp/aws&quot;] (close)</title>
<path fill="none" stroke="black" d="M671.08,-514.91C749.94,-504.38 914.28,-482.42 1028.19,-467.21"/>
<polygon fill="black" stroke="black" points="1028.91,-470.64 1038.36,-465.85 1027.98,-463.7 1028.91,-470.64"/>
</g>
</g>
</svg>
